<svg width="177" height="24" viewBox="0 0 177 24" fill="none" xmlns="http://www.w3.org/2000/svg">
<g clip-path="url(#clip0_8611_4265)">
<path d="M29.5956 15.5293H0.373168C0.0982521 15.5293 -0.0820411 15.8167 0.0376324 16.0643L1.57906 19.252C1.60241 19.3002 1.65129 19.3309 1.70489 19.3309H28.2639C28.3175 19.3309 28.3664 19.3002 28.3898 19.252L29.9312 16.0643C30.0509 15.8168 29.8706 15.5293 29.5956 15.5293Z" fill="#FAEEDC"/>
<path d="M2.18902 20.5146C3.21986 22.6464 5.37919 24.0008 7.74714 24.0008H22.2203C24.5882 24.0008 26.7475 22.6464 27.7784 20.5146L27.8662 20.3329C27.8961 20.2711 27.8511 20.1992 27.7824 20.1992H2.18507C2.11635 20.1992 2.07129 20.2711 2.10121 20.3329L2.18902 20.5146Z" fill="#FAEEDC"/>
<path d="M14.1973 0.117229L6.36499 14.0093C6.22493 14.2577 6.40444 14.565 6.68963 14.565H14.335C14.4894 14.565 14.6145 14.4399 14.6145 14.2855V0.227441C14.6145 -0.00172937 14.3105 -0.0820223 14.1973 0.117229Z" fill="#FAEEDC"/>
<path d="M23.6734 14.01L15.8411 0.11789L15.838 0.112479C15.7256 -0.0853096 15.4238 -0.00556126 15.4238 0.221873V14.2862C15.4238 14.4406 15.549 14.5657 15.7033 14.5657H23.3487C23.6339 14.5657 23.8135 14.2584 23.6734 14.01Z" fill="#FAEEDC"/>
<path d="M48.9841 20.9762L48.1864 10.0582L44.7674 20.452H41.9638L38.5447 10.0352L37.7242 20.9762H34.6016L35.7412 5.13477H38.9095V5.15737L39.6845 5.13477L43.377 16.3264L47.0468 5.13477L47.8218 5.15737V5.13477H50.9672L52.1297 20.9762H48.9841Z" fill="#FAEEDC"/>
<path d="M56.4144 16.0084C56.6118 16.7985 56.9957 17.4064 57.5654 17.8319C58.1353 18.2573 58.8227 18.4701 59.6282 18.4701C60.3726 18.4701 60.9538 18.3447 61.3719 18.0938C61.7897 17.8432 62.1278 17.4749 62.3862 16.9883L64.9619 18.6981C64.7341 19.0324 64.4605 19.3555 64.1414 19.6667C63.8223 19.9784 63.4422 20.2557 63.0017 20.4986C62.5608 20.7419 62.0559 20.9317 61.486 21.0683C60.9161 21.2053 60.2666 21.2734 59.5372 21.2734C58.5644 21.2734 57.6831 21.1138 56.8931 20.7948C56.1027 20.4757 55.4265 20.0353 54.8644 19.4729C54.3022 18.9108 53.8691 18.246 53.5653 17.4785C53.2611 16.7113 53.1094 15.8794 53.1094 14.9826C53.1094 14.1164 53.2724 13.2997 53.5995 12.5322C53.9261 11.765 54.3665 11.0962 54.9214 10.5265C55.476 9.95649 56.1295 9.50843 56.8817 9.18167C57.6339 8.85492 58.4431 8.69141 59.3091 8.69141C60.2815 8.69141 61.1476 8.86625 61.9076 9.21591C62.6673 9.56557 63.3129 10.0213 63.8451 10.5834C64.3768 11.1458 64.7831 11.788 65.0645 12.5096C65.3455 13.2312 65.4863 13.9721 65.4863 14.732C65.4863 15.2787 65.4635 15.7045 65.4178 16.0083L56.4144 16.0084ZM62.3179 13.7973C62.1506 13.0076 61.8165 12.384 61.3149 11.9283C60.8135 11.4723 60.1754 11.2445 59.4004 11.2445C58.6254 11.2445 57.9679 11.4649 57.4288 11.9053C56.8892 12.3464 56.5358 12.9766 56.3688 13.7973H62.3179Z" fill="#FAEEDC"/>
<path d="M73.6238 8.668C74.3379 8.668 74.9836 8.78203 75.5613 9.0097C76.1387 9.23771 76.6326 9.56079 77.0429 9.97863C77.4531 10.3968 77.7684 10.898 77.9888 11.483C78.209 12.068 78.3193 12.7102 78.3193 13.4089V20.9764H74.9687V14.07C74.9687 13.2949 74.7443 12.7022 74.2962 12.2921C73.8478 11.8819 73.2819 11.6768 72.5982 11.6768C71.9145 11.6768 71.3444 11.8859 70.8887 12.3034C70.4328 12.7215 70.197 13.242 70.182 13.865V20.9765H66.8086V8.96416H69.9997V10.081C70.4099 9.65585 70.9228 9.31382 71.5382 9.05555C72.1536 8.79727 72.8488 8.668 73.6238 8.668Z" fill="#FAEEDC"/>
<path d="M85.5663 20.9775C84.0621 20.9775 82.9338 20.571 82.1816 19.758C81.4294 18.9453 81.0533 17.8547 81.0533 16.4872V11.8374H79.002V8.96523H80.0276C80.8482 8.96523 81.2584 8.53211 81.2584 7.66625V5.79688H84.5408V8.96523H87.4583V11.8374H84.4268V16.0771C84.4268 16.7153 84.5863 17.2016 84.9054 17.5356C85.2245 17.87 85.6804 18.0372 86.273 18.0372H87.5494V20.9776L85.5663 20.9775Z" fill="#FAEEDC"/>
<path d="M94.7053 21.2734C93.7478 21.2734 92.8739 21.1138 92.0838 20.7948C91.2936 20.4757 90.6098 20.0353 90.0325 19.4729C89.4548 18.9108 89.0067 18.246 88.6876 17.4785C88.3685 16.7113 88.209 15.8794 88.209 14.9826C88.209 14.0858 88.3686 13.2541 88.6876 12.4867C89.0067 11.7195 89.4548 11.0547 90.0325 10.4923C90.6098 9.93021 91.2936 9.48947 92.0838 9.17003C92.8739 8.85094 93.7478 8.69141 94.7053 8.69141C95.6473 8.69141 96.5173 8.85097 97.315 9.17003C98.1128 9.48947 98.8002 9.93021 99.3778 10.4923C99.9552 11.0547 100.404 11.7195 100.723 12.4867C101.042 13.2541 101.201 14.0861 101.201 14.9826C101.201 15.879 101.042 16.7113 100.723 17.4785C100.404 18.246 99.9552 18.9108 99.3778 19.4729C98.8001 20.0352 98.1128 20.4757 97.315 20.7948C96.5173 21.1139 95.6473 21.2734 94.7053 21.2734ZM94.728 18.2649C95.6398 18.2649 96.384 17.9571 96.9617 17.3415C97.5391 16.7263 97.8279 15.9325 97.8279 14.9596C97.8279 14.0023 97.5465 13.2199 96.9845 12.6119C96.4222 12.0043 95.67 11.7002 94.728 11.7002C93.7856 11.7002 93.0298 12.0044 92.46 12.6119C91.8902 13.2199 91.6052 14.0103 91.6052 14.9825C91.6052 15.9398 91.8902 16.7262 92.46 17.3415C93.0298 17.9571 93.7855 18.2649 94.728 18.2649Z" fill="#FAEEDC"/>
<path d="M105.783 10.1269C106.193 9.68611 106.691 9.33278 107.276 9.06685C107.861 8.80126 108.51 8.66797 109.225 8.66797V11.8363C108.191 11.8363 107.39 12.0567 106.82 12.4971C106.25 12.9382 105.965 13.5611 105.965 14.3661V20.9764H102.592V8.96416H105.783L105.783 10.1269Z" fill="#FAEEDC"/>
<path d="M118.479 21.272C117.324 21.272 116.249 21.0669 115.254 20.6568C114.258 20.2466 113.396 19.6765 112.667 18.9473C111.937 18.2176 111.368 17.3518 110.957 16.3486C110.547 15.3458 110.342 14.2519 110.342 13.0666C110.342 11.8663 110.551 10.7644 110.969 9.76129C111.386 8.75846 111.96 7.89226 112.689 7.16298C113.419 6.43371 114.281 5.86366 115.277 5.45348C116.272 5.04296 117.347 4.83789 118.502 4.83789C119.52 4.83789 120.439 4.98248 121.26 5.27101C122.08 5.55985 122.802 5.94344 123.425 6.42207C124.048 6.90069 124.568 7.45182 124.986 8.07473C125.404 8.69798 125.72 9.34379 125.932 10.0122L122.673 11.3342C122.399 10.3313 121.913 9.53362 121.214 8.94097C120.515 8.34832 119.581 8.05182 118.411 8.05182C117.727 8.05182 117.104 8.17381 116.542 8.4168C115.979 8.65979 115.493 8.99781 115.083 9.43093C114.673 9.86404 114.353 10.3882 114.126 11.0038C113.898 11.6191 113.784 12.3068 113.784 13.0666C113.784 13.8112 113.898 14.4912 114.126 15.1065C114.353 15.7221 114.673 16.2463 115.083 16.6794C115.493 17.1125 115.983 17.4509 116.553 17.6935C117.123 17.9368 117.75 18.0581 118.434 18.0581C119.603 18.0581 120.534 17.762 121.226 17.1693C121.917 16.5767 122.399 15.7789 122.673 14.7761L125.932 16.0981C125.72 16.7818 125.401 17.4393 124.975 18.0698C124.55 18.7004 124.025 19.2515 123.402 19.7221C122.779 20.1935 122.057 20.5694 121.237 20.8506C120.416 21.1315 119.497 21.272 118.479 21.272Z" fill="#FAEEDC"/>
<path d="M130.674 10.1269C131.084 9.68611 131.581 9.33278 132.166 9.06685C132.751 8.80126 133.401 8.66797 134.116 8.66797V11.8363C133.082 11.8363 132.28 12.0567 131.711 12.4971C131.141 12.9382 130.856 13.5611 130.856 14.3661V20.9764H127.482V8.96416H130.674L130.674 10.1269Z" fill="#FAEEDC"/>
<path d="M146.424 8.96484V20.9771H143.256V19.8374C142.83 20.2785 142.321 20.6278 141.729 20.8861C141.136 21.1444 140.475 21.2733 139.746 21.2733C138.985 21.2733 138.313 21.148 137.728 20.8974C137.143 20.6468 136.657 20.3047 136.269 19.8716C135.882 19.4385 135.589 18.9296 135.392 18.3446C135.194 17.7596 135.096 17.1251 135.096 16.4413V8.96488H138.469V16.0083C138.469 16.677 138.67 17.2201 139.073 17.638C139.476 18.0561 140.034 18.2649 140.748 18.2649C141.447 18.2649 142.005 18.0595 142.424 17.6493C142.841 17.2391 143.05 16.7149 143.05 16.0767V8.96491L146.424 8.96484Z" fill="#FAEEDC"/>
<path d="M149.889 7.209C149.265 7.209 148.741 7.01155 148.316 6.61635C147.89 6.22145 147.678 5.70461 147.678 5.06641C147.678 4.44351 147.89 3.93064 148.316 3.52778C148.741 3.1256 149.265 2.92383 149.889 2.92383C150.512 2.92383 151.032 3.1256 151.45 3.52778C151.868 3.93064 152.077 4.44351 152.077 5.06641C152.077 5.70461 151.868 6.22149 151.45 6.61635C151.032 7.01155 150.512 7.209 149.889 7.209ZM148.179 8.96404H151.552V20.9763H148.179V8.96404Z" fill="#FAEEDC"/>
<path d="M157.956 21.2734C156.619 21.2734 155.495 21.0075 154.583 20.4756C153.671 19.9441 153.041 19.1537 152.691 18.1053L155.541 17.0111C155.708 17.5433 156 17.9534 156.418 18.2419C156.836 18.5308 157.387 18.6751 158.07 18.6751C158.572 18.6751 158.963 18.5803 159.244 18.3902C159.525 18.2004 159.666 17.9308 159.666 17.5808C159.666 17.2315 159.507 16.9543 159.187 16.7489C158.868 16.5438 158.473 16.3653 158.002 16.2134C157.531 16.0618 157.018 15.902 156.464 15.7348C155.909 15.5676 155.396 15.3512 154.925 15.0853C154.454 14.8194 154.059 14.4697 153.74 14.0366C153.421 13.6035 153.261 13.0451 153.261 12.3613C153.261 11.2216 153.69 10.3251 154.549 9.67163C155.407 9.0185 156.574 8.69141 158.048 8.69141C159.248 8.69141 160.255 8.9234 161.068 9.38678C161.881 9.85046 162.416 10.5 162.675 11.3356L159.826 12.4298C159.537 11.6091 158.929 11.199 158.002 11.199C157.06 11.199 156.589 11.5257 156.589 12.1789C156.589 12.498 156.749 12.7489 157.068 12.9311C157.387 13.1135 157.782 13.2731 158.253 13.4097C158.724 13.5466 159.241 13.6912 159.803 13.8428C160.365 13.9951 160.882 14.2114 161.353 14.4926C161.824 14.7739 162.219 15.1385 162.538 15.5866C162.857 16.035 163.017 16.6316 163.017 17.3758C163.017 17.9837 162.899 18.5269 162.663 19.0055C162.428 19.4842 162.09 19.891 161.649 20.2251C161.208 20.5594 160.676 20.8177 160.054 21.0002C159.43 21.1824 158.732 21.2734 157.956 21.2734Z" fill="#FAEEDC"/>
<path d="M167.03 16.0084C167.227 16.7985 167.611 17.4064 168.181 17.8319C168.751 18.2573 169.438 18.4701 170.243 18.4701C170.988 18.4701 171.569 18.3447 171.987 18.0938C172.405 17.8432 172.743 17.4749 173.002 16.9883L175.577 18.6981C175.349 19.0324 175.076 19.3555 174.757 19.6667C174.438 19.9784 174.058 20.2557 173.617 20.4986C173.176 20.7419 172.671 20.9317 172.101 21.0683C171.532 21.2053 170.882 21.2734 170.152 21.2734C169.18 21.2734 168.298 21.1138 167.508 20.7948C166.718 20.4757 166.042 20.0353 165.48 19.4729C164.917 18.9108 164.484 18.246 164.18 17.4785C163.876 16.7113 163.725 15.8794 163.725 14.9826C163.725 14.1164 163.888 13.2997 164.215 12.5322C164.541 11.765 164.982 11.0962 165.537 10.5265C166.091 9.95649 166.745 9.50843 167.497 9.18167C168.249 8.85492 169.058 8.69141 169.924 8.69141C170.897 8.69141 171.763 8.86625 172.523 9.21591C173.283 9.56557 173.928 10.0213 174.46 10.5834C174.992 11.1458 175.399 11.788 175.68 12.5096C175.961 13.2312 176.102 13.9721 176.102 14.732C176.102 15.2787 176.079 15.7045 176.033 16.0083L167.03 16.0084ZM172.933 13.7973C172.766 13.0076 172.432 12.384 171.93 11.9283C171.429 11.4723 170.791 11.2445 170.015 11.2445C169.24 11.2445 168.583 11.4649 168.044 11.9053C167.504 12.3464 167.151 12.9766 166.984 13.7973H172.933Z" fill="#FAEEDC"/>
</g>
<defs>
<clipPath id="clip0_8611_4265">
<rect width="176.101" height="24" fill="white"/>
</clipPath>
</defs>
</svg>
